<mxfile host="app.diagrams.net" modified="2021-08-03T23:32:17.270Z" agent="5.0 (X11; Linux x86_64) AppleWebKit/537.36 (KHTML, like Gecko) Chrome/90.0.4430.72 Safari/537.36" etag="if-5ST4FL4mvyl-6_L_7" version="14.9.4" type="github">
  <diagram id="R2lEEEUBdFMjLlhIrx00" name="Page-1">
    <mxGraphModel dx="2523" dy="2053" grid="1" gridSize="10" guides="1" tooltips="1" connect="1" arrows="1" fold="1" page="1" pageScale="1" pageWidth="850" pageHeight="1100" math="0" shadow="0" extFonts="Permanent Marker^https://fonts.googleapis.com/css?family=Permanent+Marker">
      <root>
        <mxCell id="0" />
        <mxCell id="1" parent="0" />
        <mxCell id="CDFM8AFHUel1WWdjoYh1-1" value="Cliente" style="swimlane;childLayout=stackLayout;horizontal=1;startSize=30;horizontalStack=0;rounded=1;fontSize=14;fontStyle=0;strokeWidth=2;resizeParent=0;resizeLast=1;shadow=0;dashed=0;align=center;" parent="1" vertex="1">
          <mxGeometry x="-200" y="147" width="160" height="120" as="geometry" />
        </mxCell>
        <mxCell id="CDFM8AFHUel1WWdjoYh1-2" value="nombre&#xa;telefono" style="align=left;strokeColor=none;fillColor=none;spacingLeft=4;fontSize=12;verticalAlign=top;resizable=0;rotatable=0;part=1;" parent="CDFM8AFHUel1WWdjoYh1-1" vertex="1">
          <mxGeometry y="30" width="160" height="90" as="geometry" />
        </mxCell>
        <mxCell id="CDFM8AFHUel1WWdjoYh1-3" value="Pertenecer" style="shape=rhombus;perimeter=rhombusPerimeter;whiteSpace=wrap;html=1;align=center;" parent="1" vertex="1">
          <mxGeometry x="-10" y="187" width="120" height="60" as="geometry" />
        </mxCell>
        <mxCell id="CDFM8AFHUel1WWdjoYh1-4" value="" style="endArrow=none;html=1;rounded=0;exitX=0.996;exitY=0.444;exitDx=0;exitDy=0;entryX=0;entryY=0.5;entryDx=0;entryDy=0;exitPerimeter=0;startArrow=ERone;startFill=0;" parent="1" source="CDFM8AFHUel1WWdjoYh1-2" target="CDFM8AFHUel1WWdjoYh1-3" edge="1">
          <mxGeometry relative="1" as="geometry">
            <mxPoint x="-20" y="307" as="sourcePoint" />
            <mxPoint x="140" y="307" as="targetPoint" />
          </mxGeometry>
        </mxCell>
        <mxCell id="CDFM8AFHUel1WWdjoYh1-5" value="Usuario" style="swimlane;childLayout=stackLayout;horizontal=1;startSize=30;horizontalStack=0;rounded=1;fontSize=14;fontStyle=0;strokeWidth=2;resizeParent=0;resizeLast=1;shadow=0;dashed=0;align=center;" parent="1" vertex="1">
          <mxGeometry x="149" y="153" width="160" height="120" as="geometry" />
        </mxCell>
        <mxCell id="CDFM8AFHUel1WWdjoYh1-6" value="nombre&#xa;correo&#xa;contraseña&#xa;rol&#xa;número" style="align=left;strokeColor=none;fillColor=none;spacingLeft=4;fontSize=12;verticalAlign=top;resizable=0;rotatable=0;part=1;" parent="CDFM8AFHUel1WWdjoYh1-5" vertex="1">
          <mxGeometry y="30" width="160" height="90" as="geometry" />
        </mxCell>
        <mxCell id="CDFM8AFHUel1WWdjoYh1-8" style="edgeStyle=orthogonalEdgeStyle;rounded=0;orthogonalLoop=1;jettySize=auto;html=1;exitX=0.5;exitY=1;exitDx=0;exitDy=0;" parent="CDFM8AFHUel1WWdjoYh1-5" source="CDFM8AFHUel1WWdjoYh1-6" target="CDFM8AFHUel1WWdjoYh1-6" edge="1">
          <mxGeometry relative="1" as="geometry" />
        </mxCell>
        <mxCell id="CDFM8AFHUel1WWdjoYh1-7" value="" style="endArrow=ERzeroToOne;html=1;rounded=0;exitX=1;exitY=0.5;exitDx=0;exitDy=0;entryX=0;entryY=0.386;entryDx=0;entryDy=0;entryPerimeter=0;endFill=1;" parent="1" source="CDFM8AFHUel1WWdjoYh1-3" target="CDFM8AFHUel1WWdjoYh1-6" edge="1">
          <mxGeometry relative="1" as="geometry">
            <mxPoint x="-30.6400000000001" y="226.96000000000004" as="sourcePoint" />
            <mxPoint x="50" y="227" as="targetPoint" />
          </mxGeometry>
        </mxCell>
        <mxCell id="CDFM8AFHUel1WWdjoYh1-10" value="Rol" style="swimlane;childLayout=stackLayout;horizontal=1;startSize=30;horizontalStack=0;rounded=1;fontSize=14;fontStyle=0;strokeWidth=2;resizeParent=0;resizeLast=1;shadow=0;dashed=0;align=center;" parent="1" vertex="1">
          <mxGeometry x="149" y="487" width="160" height="90" as="geometry" />
        </mxCell>
        <mxCell id="CDFM8AFHUel1WWdjoYh1-11" value="nombre&#xa;descripcion" style="align=left;strokeColor=none;fillColor=none;spacingLeft=4;fontSize=12;verticalAlign=top;resizable=0;rotatable=0;part=1;" parent="CDFM8AFHUel1WWdjoYh1-10" vertex="1">
          <mxGeometry y="30" width="160" height="60" as="geometry" />
        </mxCell>
        <mxCell id="CDFM8AFHUel1WWdjoYh1-12" style="edgeStyle=orthogonalEdgeStyle;rounded=0;orthogonalLoop=1;jettySize=auto;html=1;exitX=0.5;exitY=1;exitDx=0;exitDy=0;" parent="CDFM8AFHUel1WWdjoYh1-10" source="CDFM8AFHUel1WWdjoYh1-11" target="CDFM8AFHUel1WWdjoYh1-11" edge="1">
          <mxGeometry relative="1" as="geometry" />
        </mxCell>
        <mxCell id="CDFM8AFHUel1WWdjoYh1-13" value="Pertenecer" style="shape=rhombus;perimeter=rhombusPerimeter;whiteSpace=wrap;html=1;align=center;" parent="1" vertex="1">
          <mxGeometry x="169" y="397" width="120" height="60" as="geometry" />
        </mxCell>
        <mxCell id="CDFM8AFHUel1WWdjoYh1-14" value="" style="endArrow=none;html=1;rounded=0;exitX=0.5;exitY=1;exitDx=0;exitDy=0;entryX=0.5;entryY=0;entryDx=0;entryDy=0;startArrow=ERoneToMany;startFill=0;" parent="1" source="CDFM8AFHUel1WWdjoYh1-5" target="CDFM8AFHUel1WWdjoYh1-13" edge="1">
          <mxGeometry relative="1" as="geometry">
            <mxPoint x="-30.6400000000001" y="226.96000000000004" as="sourcePoint" />
            <mxPoint y="227" as="targetPoint" />
          </mxGeometry>
        </mxCell>
        <mxCell id="CDFM8AFHUel1WWdjoYh1-15" value="" style="endArrow=ERzeroToMany;html=1;rounded=0;exitX=0.5;exitY=1;exitDx=0;exitDy=0;entryX=0.5;entryY=0;entryDx=0;entryDy=0;endFill=1;" parent="1" source="CDFM8AFHUel1WWdjoYh1-13" target="CDFM8AFHUel1WWdjoYh1-10" edge="1">
          <mxGeometry relative="1" as="geometry">
            <mxPoint x="120" y="297" as="sourcePoint" />
            <mxPoint x="159" y="297.74" as="targetPoint" />
          </mxGeometry>
        </mxCell>
        <mxCell id="CDFM8AFHUel1WWdjoYh1-16" value="Acceso" style="swimlane;childLayout=stackLayout;horizontal=1;startSize=30;horizontalStack=0;rounded=1;fontSize=14;fontStyle=0;strokeWidth=2;resizeParent=0;resizeLast=1;shadow=0;dashed=0;align=center;" parent="1" vertex="1">
          <mxGeometry x="149" y="717" width="160" height="90" as="geometry" />
        </mxCell>
        <mxCell id="CDFM8AFHUel1WWdjoYh1-17" value="nombre&#xa;descripcion" style="align=left;strokeColor=none;fillColor=none;spacingLeft=4;fontSize=12;verticalAlign=top;resizable=0;rotatable=0;part=1;" parent="CDFM8AFHUel1WWdjoYh1-16" vertex="1">
          <mxGeometry y="30" width="160" height="60" as="geometry" />
        </mxCell>
        <mxCell id="CDFM8AFHUel1WWdjoYh1-18" style="edgeStyle=orthogonalEdgeStyle;rounded=0;orthogonalLoop=1;jettySize=auto;html=1;exitX=0.5;exitY=1;exitDx=0;exitDy=0;" parent="CDFM8AFHUel1WWdjoYh1-16" source="CDFM8AFHUel1WWdjoYh1-17" target="CDFM8AFHUel1WWdjoYh1-17" edge="1">
          <mxGeometry relative="1" as="geometry" />
        </mxCell>
        <mxCell id="CDFM8AFHUel1WWdjoYh1-20" value="Dar" style="shape=rhombus;perimeter=rhombusPerimeter;whiteSpace=wrap;html=1;align=center;" parent="1" vertex="1">
          <mxGeometry x="169" y="617" width="120" height="60" as="geometry" />
        </mxCell>
        <mxCell id="CDFM8AFHUel1WWdjoYh1-21" value="" style="endArrow=ERzeroToMany;html=1;rounded=0;entryX=0.5;entryY=0;entryDx=0;entryDy=0;endFill=1;exitX=0.5;exitY=1;exitDx=0;exitDy=0;" parent="1" source="CDFM8AFHUel1WWdjoYh1-20" target="CDFM8AFHUel1WWdjoYh1-16" edge="1">
          <mxGeometry relative="1" as="geometry">
            <mxPoint x="229" y="677" as="sourcePoint" />
            <mxPoint x="239" y="497" as="targetPoint" />
          </mxGeometry>
        </mxCell>
        <mxCell id="CDFM8AFHUel1WWdjoYh1-22" value="" style="endArrow=ERzeroToMany;html=1;rounded=0;entryX=0.5;entryY=1;entryDx=0;entryDy=0;endFill=1;exitX=0.5;exitY=0;exitDx=0;exitDy=0;" parent="1" source="CDFM8AFHUel1WWdjoYh1-20" target="CDFM8AFHUel1WWdjoYh1-11" edge="1">
          <mxGeometry relative="1" as="geometry">
            <mxPoint x="239" y="717" as="sourcePoint" />
            <mxPoint x="239" y="757" as="targetPoint" />
          </mxGeometry>
        </mxCell>
        <mxCell id="CDFM8AFHUel1WWdjoYh1-23" value="Grupo" style="swimlane;childLayout=stackLayout;horizontal=1;startSize=30;horizontalStack=0;rounded=1;fontSize=14;fontStyle=0;strokeWidth=2;resizeParent=0;resizeLast=1;shadow=0;dashed=0;align=center;" parent="1" vertex="1">
          <mxGeometry x="-200" y="387" width="160" height="90" as="geometry" />
        </mxCell>
        <mxCell id="CDFM8AFHUel1WWdjoYh1-24" value="nombre&#xa;descripcion" style="align=left;strokeColor=none;fillColor=none;spacingLeft=4;fontSize=12;verticalAlign=top;resizable=0;rotatable=0;part=1;" parent="CDFM8AFHUel1WWdjoYh1-23" vertex="1">
          <mxGeometry y="30" width="160" height="60" as="geometry" />
        </mxCell>
        <mxCell id="CDFM8AFHUel1WWdjoYh1-25" style="edgeStyle=orthogonalEdgeStyle;rounded=0;orthogonalLoop=1;jettySize=auto;html=1;exitX=0.5;exitY=1;exitDx=0;exitDy=0;" parent="CDFM8AFHUel1WWdjoYh1-23" source="CDFM8AFHUel1WWdjoYh1-24" target="CDFM8AFHUel1WWdjoYh1-24" edge="1">
          <mxGeometry relative="1" as="geometry" />
        </mxCell>
        <mxCell id="CDFM8AFHUel1WWdjoYh1-26" value="" style="endArrow=none;html=1;rounded=0;startArrow=ERone;startFill=0;exitX=0.5;exitY=1;exitDx=0;exitDy=0;entryX=0.5;entryY=0;entryDx=0;entryDy=0;" parent="1" source="CDFM8AFHUel1WWdjoYh1-2" target="CDFM8AFHUel1WWdjoYh1-27" edge="1">
          <mxGeometry relative="1" as="geometry">
            <mxPoint x="-70" y="337" as="sourcePoint" />
            <mxPoint x="20" y="367" as="targetPoint" />
          </mxGeometry>
        </mxCell>
        <mxCell id="CDFM8AFHUel1WWdjoYh1-27" value="Pertenecer" style="shape=rhombus;perimeter=rhombusPerimeter;whiteSpace=wrap;html=1;align=center;" parent="1" vertex="1">
          <mxGeometry x="-180" y="297" width="120" height="60" as="geometry" />
        </mxCell>
        <mxCell id="CDFM8AFHUel1WWdjoYh1-28" value="" style="endArrow=none;html=1;rounded=0;startArrow=ERzeroToOne;startFill=1;exitX=0.5;exitY=0;exitDx=0;exitDy=0;entryX=0.5;entryY=1;entryDx=0;entryDy=0;" parent="1" source="CDFM8AFHUel1WWdjoYh1-23" target="CDFM8AFHUel1WWdjoYh1-27" edge="1">
          <mxGeometry relative="1" as="geometry">
            <mxPoint x="-110" y="277.0000000000001" as="sourcePoint" />
            <mxPoint x="-110" y="307" as="targetPoint" />
          </mxGeometry>
        </mxCell>
        <mxCell id="CDFM8AFHUel1WWdjoYh1-29" value="" style="endArrow=ERzeroToMany;html=1;rounded=0;exitX=0;exitY=0.5;exitDx=0;exitDy=0;entryX=1.003;entryY=0.152;entryDx=0;entryDy=0;endFill=1;entryPerimeter=0;" parent="1" source="CDFM8AFHUel1WWdjoYh1-13" target="CDFM8AFHUel1WWdjoYh1-24" edge="1">
          <mxGeometry relative="1" as="geometry">
            <mxPoint x="239" y="467" as="sourcePoint" />
            <mxPoint x="239" y="497" as="targetPoint" />
          </mxGeometry>
        </mxCell>
        <mxCell id="CDFM8AFHUel1WWdjoYh1-30" value="Mensaje" style="swimlane;childLayout=stackLayout;horizontal=1;startSize=30;horizontalStack=0;rounded=1;fontSize=14;fontStyle=0;strokeWidth=2;resizeParent=0;resizeLast=1;shadow=0;dashed=0;align=center;" parent="1" vertex="1">
          <mxGeometry x="-359" y="-100" width="160" height="135" as="geometry" />
        </mxCell>
        <mxCell id="CDFM8AFHUel1WWdjoYh1-31" value="fecha de envío&#xa;contenido&#xa;encoding&#xa;is_file" style="align=left;strokeColor=none;fillColor=none;spacingLeft=4;fontSize=12;verticalAlign=top;resizable=0;rotatable=0;part=1;" parent="CDFM8AFHUel1WWdjoYh1-30" vertex="1">
          <mxGeometry y="30" width="160" height="105" as="geometry" />
        </mxCell>
        <mxCell id="CDFM8AFHUel1WWdjoYh1-34" value="Archivo" style="swimlane;childLayout=stackLayout;horizontal=1;startSize=30;horizontalStack=0;rounded=1;fontSize=14;fontStyle=0;strokeWidth=2;resizeParent=0;resizeLast=1;shadow=0;dashed=0;align=center;" parent="1" vertex="1">
          <mxGeometry x="-660" y="-89.5" width="160" height="120" as="geometry" />
        </mxCell>
        <mxCell id="CDFM8AFHUel1WWdjoYh1-35" value="id&#xa;link&#xa;tipo" style="align=left;strokeColor=none;fillColor=none;spacingLeft=4;fontSize=12;verticalAlign=top;resizable=0;rotatable=0;part=1;" parent="CDFM8AFHUel1WWdjoYh1-34" vertex="1">
          <mxGeometry y="30" width="160" height="90" as="geometry" />
        </mxCell>
        <mxCell id="CDFM8AFHUel1WWdjoYh1-39" value="Ser" style="rhombus;whiteSpace=wrap;html=1;" parent="1" vertex="1">
          <mxGeometry x="-471" y="-58" width="80" height="80" as="geometry" />
        </mxCell>
        <mxCell id="CDFM8AFHUel1WWdjoYh1-40" value="Crear" style="shape=rhombus;perimeter=rhombusPerimeter;whiteSpace=wrap;html=1;align=center;" parent="1" vertex="1">
          <mxGeometry x="-10" y="67" width="120" height="60" as="geometry" />
        </mxCell>
        <mxCell id="CDFM8AFHUel1WWdjoYh1-41" value="" style="endArrow=ERzeroToOne;html=1;rounded=0;endFill=1;entryX=0.5;entryY=0;entryDx=0;entryDy=0;exitX=1;exitY=0.5;exitDx=0;exitDy=0;edgeStyle=orthogonalEdgeStyle;" parent="1" source="CDFM8AFHUel1WWdjoYh1-40" target="CDFM8AFHUel1WWdjoYh1-5" edge="1">
          <mxGeometry relative="1" as="geometry">
            <mxPoint x="180" y="27" as="sourcePoint" />
            <mxPoint x="220" y="127" as="targetPoint" />
          </mxGeometry>
        </mxCell>
        <mxCell id="CDFM8AFHUel1WWdjoYh1-42" value="" style="endArrow=ERzeroToOne;html=1;rounded=0;endFill=1;entryX=0.5;entryY=0;entryDx=0;entryDy=0;exitX=0;exitY=0.5;exitDx=0;exitDy=0;edgeStyle=orthogonalEdgeStyle;" parent="1" source="CDFM8AFHUel1WWdjoYh1-40" target="CDFM8AFHUel1WWdjoYh1-1" edge="1">
          <mxGeometry relative="1" as="geometry">
            <mxPoint x="120" y="97" as="sourcePoint" />
            <mxPoint x="239" y="162.99999999999977" as="targetPoint" />
          </mxGeometry>
        </mxCell>
        <mxCell id="CDFM8AFHUel1WWdjoYh1-43" value="" style="endArrow=ERzeroToMany;html=1;rounded=0;endFill=1;entryX=0.5;entryY=1;entryDx=0;entryDy=0;exitX=0.5;exitY=0;exitDx=0;exitDy=0;edgeStyle=orthogonalEdgeStyle;" parent="1" source="CDFM8AFHUel1WWdjoYh1-40" target="A5T8yZxs9piIKYW0P6CB-6" edge="1">
          <mxGeometry relative="1" as="geometry">
            <mxPoint x="120" y="105" as="sourcePoint" />
            <mxPoint x="239" y="170.99999999999977" as="targetPoint" />
          </mxGeometry>
        </mxCell>
        <mxCell id="CDFM8AFHUel1WWdjoYh1-46" value="" style="endArrow=ERone;html=1;rounded=0;endFill=0;entryX=1.008;entryY=0.454;entryDx=0;entryDy=0;exitX=0;exitY=0.5;exitDx=0;exitDy=0;entryPerimeter=0;" parent="1" source="CDFM8AFHUel1WWdjoYh1-39" target="CDFM8AFHUel1WWdjoYh1-35" edge="1">
          <mxGeometry relative="1" as="geometry">
            <mxPoint x="-269" y="104" as="sourcePoint" />
            <mxPoint x="-269" y="64" as="targetPoint" />
          </mxGeometry>
        </mxCell>
        <mxCell id="CDFM8AFHUel1WWdjoYh1-48" value="" style="endArrow=ERone;html=1;rounded=0;endFill=0;entryX=0;entryY=0.5;entryDx=0;entryDy=0;" parent="1" source="CDFM8AFHUel1WWdjoYh1-39" target="CDFM8AFHUel1WWdjoYh1-31" edge="1">
          <mxGeometry relative="1" as="geometry">
            <mxPoint x="-229" y="-175" as="sourcePoint" />
            <mxPoint x="-191.07999999999993" y="-175.30999999999995" as="targetPoint" />
          </mxGeometry>
        </mxCell>
        <mxCell id="CDFM8AFHUel1WWdjoYh1-53" value="Usar" style="shape=rhombus;perimeter=rhombusPerimeter;whiteSpace=wrap;html=1;align=center;" parent="1" vertex="1">
          <mxGeometry x="339" y="200" width="120" height="60" as="geometry" />
        </mxCell>
        <mxCell id="CDFM8AFHUel1WWdjoYh1-55" value="" style="endArrow=ERzeroToMany;html=1;rounded=0;exitX=0;exitY=0.5;exitDx=0;exitDy=0;endFill=1;" parent="1" source="CDFM8AFHUel1WWdjoYh1-53" target="CDFM8AFHUel1WWdjoYh1-6" edge="1">
          <mxGeometry relative="1" as="geometry">
            <mxPoint x="239" y="467" as="sourcePoint" />
            <mxPoint x="239" y="497" as="targetPoint" />
          </mxGeometry>
        </mxCell>
        <mxCell id="A5T8yZxs9piIKYW0P6CB-1" value="Medium" style="swimlane;childLayout=stackLayout;horizontal=1;startSize=30;horizontalStack=0;rounded=1;fontSize=14;fontStyle=0;strokeWidth=2;resizeParent=0;resizeLast=1;shadow=0;dashed=0;align=center;" vertex="1" parent="1">
          <mxGeometry x="319" y="-113" width="160" height="135" as="geometry" />
        </mxCell>
        <mxCell id="A5T8yZxs9piIKYW0P6CB-2" value="id (int)&#xa;nombre" style="align=left;strokeColor=none;fillColor=none;spacingLeft=4;fontSize=12;verticalAlign=top;resizable=0;rotatable=0;part=1;" vertex="1" parent="A5T8yZxs9piIKYW0P6CB-1">
          <mxGeometry y="30" width="160" height="105" as="geometry" />
        </mxCell>
        <mxCell id="A5T8yZxs9piIKYW0P6CB-3" value="Utilizar" style="rhombus;whiteSpace=wrap;html=1;" vertex="1" parent="1">
          <mxGeometry x="196" y="-70.5" width="80" height="80" as="geometry" />
        </mxCell>
        <mxCell id="A5T8yZxs9piIKYW0P6CB-4" value="" style="endArrow=ERone;html=1;rounded=0;endFill=0;entryX=0;entryY=0.5;entryDx=0;entryDy=0;exitX=1;exitY=0.5;exitDx=0;exitDy=0;" edge="1" parent="1" source="A5T8yZxs9piIKYW0P6CB-3" target="A5T8yZxs9piIKYW0P6CB-2">
          <mxGeometry relative="1" as="geometry">
            <mxPoint x="120.99999999999977" y="-154" as="sourcePoint" />
            <mxPoint x="158.92000000000007" y="-154.31000000000006" as="targetPoint" />
          </mxGeometry>
        </mxCell>
        <mxCell id="A5T8yZxs9piIKYW0P6CB-5" value="Room" style="swimlane;childLayout=stackLayout;horizontal=1;startSize=30;horizontalStack=0;rounded=1;fontSize=14;fontStyle=0;strokeWidth=2;resizeParent=0;resizeLast=1;shadow=0;dashed=0;align=center;" vertex="1" parent="1">
          <mxGeometry x="-30" y="-103.5" width="160" height="135" as="geometry" />
        </mxCell>
        <mxCell id="A5T8yZxs9piIKYW0P6CB-6" value="id (int)&#xa;receptor&#xa;emisor&#xa;dato_receptor&#xa;dato_emisor&#xa;medium" style="align=left;strokeColor=none;fillColor=none;spacingLeft=4;fontSize=12;verticalAlign=top;resizable=0;rotatable=0;part=1;" vertex="1" parent="A5T8yZxs9piIKYW0P6CB-5">
          <mxGeometry y="30" width="160" height="105" as="geometry" />
        </mxCell>
        <mxCell id="A5T8yZxs9piIKYW0P6CB-7" value="Existir" style="rhombus;whiteSpace=wrap;html=1;" vertex="1" parent="1">
          <mxGeometry x="-160" y="-69.5" width="80" height="80" as="geometry" />
        </mxCell>
        <mxCell id="A5T8yZxs9piIKYW0P6CB-8" value="" style="endArrow=ERoneToMany;html=1;rounded=0;exitX=0;exitY=0.5;exitDx=0;exitDy=0;entryX=1;entryY=0.39;entryDx=0;entryDy=0;endFill=0;entryPerimeter=0;" edge="1" parent="1" source="A5T8yZxs9piIKYW0P6CB-7" target="CDFM8AFHUel1WWdjoYh1-31">
          <mxGeometry relative="1" as="geometry">
            <mxPoint x="20" y="60.879999999999995" as="sourcePoint" />
            <mxPoint x="-188.5200000000002" y="60.000000000000114" as="targetPoint" />
          </mxGeometry>
        </mxCell>
        <mxCell id="A5T8yZxs9piIKYW0P6CB-9" value="" style="endArrow=ERone;html=1;rounded=0;endFill=0;exitX=1;exitY=0.5;exitDx=0;exitDy=0;entryX=0.002;entryY=0.419;entryDx=0;entryDy=0;entryPerimeter=0;" edge="1" parent="1" source="A5T8yZxs9piIKYW0P6CB-7" target="A5T8yZxs9piIKYW0P6CB-6">
          <mxGeometry relative="1" as="geometry">
            <mxPoint x="150" y="227" as="sourcePoint" />
            <mxPoint x="179" y="227" as="targetPoint" />
          </mxGeometry>
        </mxCell>
        <mxCell id="A5T8yZxs9piIKYW0P6CB-10" value="" style="endArrow=ERoneToMany;html=1;rounded=0;exitX=0;exitY=0.5;exitDx=0;exitDy=0;entryX=0.999;entryY=0.413;entryDx=0;entryDy=0;endFill=0;entryPerimeter=0;" edge="1" parent="1" source="A5T8yZxs9piIKYW0P6CB-3" target="A5T8yZxs9piIKYW0P6CB-6">
          <mxGeometry relative="1" as="geometry">
            <mxPoint x="-150" y="-19.5" as="sourcePoint" />
            <mxPoint x="-189" y="-19.050000000000068" as="targetPoint" />
          </mxGeometry>
        </mxCell>
        <mxCell id="A5T8yZxs9piIKYW0P6CB-11" value="Medium Settings" style="swimlane;childLayout=stackLayout;horizontal=1;startSize=30;horizontalStack=0;rounded=1;fontSize=14;fontStyle=0;strokeWidth=2;resizeParent=0;resizeLast=1;shadow=0;dashed=0;align=center;" vertex="1" parent="1">
          <mxGeometry x="319" y="-390" width="160" height="135" as="geometry" />
        </mxCell>
        <mxCell id="A5T8yZxs9piIKYW0P6CB-12" value="id (int)&#xa;nombre&#xa;value" style="align=left;strokeColor=none;fillColor=none;spacingLeft=4;fontSize=12;verticalAlign=top;resizable=0;rotatable=0;part=1;" vertex="1" parent="A5T8yZxs9piIKYW0P6CB-11">
          <mxGeometry y="30" width="160" height="105" as="geometry" />
        </mxCell>
        <mxCell id="A5T8yZxs9piIKYW0P6CB-13" value="Utilizar" style="rhombus;whiteSpace=wrap;html=1;" vertex="1" parent="1">
          <mxGeometry x="359" y="-220" width="80" height="80" as="geometry" />
        </mxCell>
        <mxCell id="A5T8yZxs9piIKYW0P6CB-14" value="" style="endArrow=ERoneToMany;html=1;entryX=0.5;entryY=1;entryDx=0;entryDy=0;exitX=0.5;exitY=0;exitDx=0;exitDy=0;endFill=0;" edge="1" parent="1" source="A5T8yZxs9piIKYW0P6CB-13" target="A5T8yZxs9piIKYW0P6CB-11">
          <mxGeometry width="50" height="50" relative="1" as="geometry">
            <mxPoint x="79" y="-200" as="sourcePoint" />
            <mxPoint x="129" y="-250" as="targetPoint" />
          </mxGeometry>
        </mxCell>
        <mxCell id="A5T8yZxs9piIKYW0P6CB-15" value="" style="endArrow=none;html=1;entryX=0.5;entryY=1;entryDx=0;entryDy=0;exitX=0.5;exitY=0;exitDx=0;exitDy=0;startArrow=ERone;startFill=0;" edge="1" parent="1" source="A5T8yZxs9piIKYW0P6CB-1" target="A5T8yZxs9piIKYW0P6CB-13">
          <mxGeometry width="50" height="50" relative="1" as="geometry">
            <mxPoint x="409" y="-210" as="sourcePoint" />
            <mxPoint x="409" y="-245" as="targetPoint" />
          </mxGeometry>
        </mxCell>
        <mxCell id="A5T8yZxs9piIKYW0P6CB-16" value="" style="endArrow=ERoneToMany;html=1;rounded=0;exitX=0.5;exitY=0;exitDx=0;exitDy=0;entryX=0.5;entryY=1;entryDx=0;entryDy=0;endFill=0;" edge="1" parent="1" source="CDFM8AFHUel1WWdjoYh1-53" target="A5T8yZxs9piIKYW0P6CB-1">
          <mxGeometry relative="1" as="geometry">
            <mxPoint x="206" y="-20.5" as="sourcePoint" />
            <mxPoint x="139.84000000000015" y="-20.13499999999999" as="targetPoint" />
          </mxGeometry>
        </mxCell>
      </root>
    </mxGraphModel>
  </diagram>
</mxfile>
